<svg width="38" height="42" viewBox="0 0 38 42" fill="none" xmlns="http://www.w3.org/2000/svg">
<path d="M0.0140996 14.109C-0.103022 11.7831 0.512281 9.48556 1.7574 7.55918L2.08174 7.08552L2.10855 7.05956L2.33372 6.79534L2.56962 6.52556L2.59642 6.49775C3.04676 6.03607 3.54536 5.63001 4.08327 5.28328L4.23517 5.1871L4.38707 5.09787L4.74448 4.89206C4.88924 4.82345 5.0465 4.74187 5.19125 4.67327C5.29669 4.63248 5.40213 4.57871 5.50757 4.53791C5.70593 4.45448 5.91681 4.37289 6.12768 4.30429C6.19916 4.26906 6.27422 4.24125 6.35106 4.22271L6.4364 4.18841L6.52977 4.1541C7.49122 3.86671 8.47947 3.66832 9.47844 3.57746L9.375 3.58958V1.51742C9.375 0.686576 10.0452 0.0147884 10.8741 0.0147884C11.7029 0.0147884 12.375 0.686576 12.375 1.51742V8.06688C12.375 8.89773 11.7029 9.57139 10.8741 9.57139C10.0452 9.57139 9.375 8.89773 9.375 8.06688L9.3751 6.55269C8.39103 6.65122 7.42477 6.89607 6.50833 7.28391C4.1434 8.34782 3.01552 10.3739 2.90865 13.5848L2.90022 14.1016V14.9082H34.6011V14.0812C34.6619 12.5942 34.3635 11.1146 33.7308 9.77774C33.1232 8.63373 32.1511 7.74559 30.9769 7.26352C30.2292 6.94164 29.4461 6.71706 28.6457 6.59454L28.125 6.53125L28.1251 8.05933C28.1251 8.88659 27.4538 9.55664 26.6251 9.55664C25.7963 9.55664 25.1251 8.88659 25.1251 8.05933L25.125 6.41875L12.3896 6.41988V3.44026L25.125 3.43958L25.1251 1.50861C25.1176 0.681345 25.7851 0.00568512 26.6138 3.48851e-05C27.4426 -0.00554469 28.1194 0.658886 28.1251 1.48615L28.1263 3.57806C28.8541 3.64988 29.5761 3.77685 30.2866 3.95827L30.993 4.15781C31.0502 4.16894 31.0931 4.18377 31.1717 4.21158C31.2504 4.2394 31.3165 4.26721 31.3951 4.29317C31.6042 4.36177 31.799 4.44335 32.0009 4.52679C32.1171 4.56758 32.2243 4.62135 32.3155 4.66214C32.4727 4.73075 32.6336 4.81233 32.7622 4.88093C32.8945 4.94954 33.0214 5.02556 33.1322 5.08674C33.243 5.14793 33.3287 5.21653 33.4217 5.27216C33.8264 5.53359 34.2111 5.8284 34.5704 6.15268L34.921 6.48663L34.9371 6.51444L35.1822 6.77448L35.4125 7.04843L35.425 7.07439C36.7727 8.93824 37.4976 11.2018 37.5 13.5209L37.4855 14.1016V14.9082H37.5V31.0629C37.5 38.1075 33.5658 41.6667 25.769 41.6667H11.7132C3.93419 41.6667 2.79367e-09 38.1075 2.79367e-09 31.0629V14.9082H0.0140996V14.109ZM27.3247 29.6798C26.3591 29.6798 25.5901 30.4727 25.5901 31.4501C25.608 32.4275 26.377 33.2205 27.3247 33.2205C28.2725 33.2205 29.0415 32.4275 29.0415 31.4501C29.0415 30.4727 28.2725 29.6798 27.3247 29.6798ZM18.7589 29.6613C17.7933 29.6798 17.0243 30.4727 17.0243 31.4501C17.0243 32.4275 17.8112 33.2205 18.7589 33.2205C19.7067 33.2205 20.4757 32.4275 20.4757 31.4317C20.4578 30.4727 19.7067 29.6798 18.7589 29.6613ZM10.1753 29.6613C9.20958 29.6613 8.44063 30.4727 8.45851 31.4501C8.45851 32.4275 9.22747 33.2205 10.1753 33.2205C11.123 33.2205 11.892 32.4091 11.892 31.4317C11.892 30.4543 11.123 29.6613 10.1753 29.6613ZM27.3247 22.1188C26.3591 22.1188 25.608 22.9118 25.608 23.8891C25.608 24.8665 26.377 25.6595 27.3247 25.6595C28.2725 25.6595 29.0415 24.8665 29.0415 23.8891C29.0415 22.9118 28.2725 22.1188 27.3247 22.1188ZM18.7589 22.1003C17.7933 22.1188 17.0243 22.9118 17.0243 23.8891C17.0243 24.8665 17.8112 25.6595 18.7589 25.6595C19.7067 25.6595 20.4757 24.8665 20.4757 23.8707C20.4757 22.9118 19.7067 22.1188 18.7589 22.1003ZM10.1931 22.1003C9.22747 22.1003 8.45851 22.9118 8.45851 23.8891C8.45851 24.8665 9.22747 25.6595 10.1753 25.6595C11.1409 25.6595 11.9099 24.8481 11.892 23.8707C11.892 22.8933 11.123 22.1003 10.1931 22.1003Z" fill="#A8AAAC"/>
</svg>
