<svg width="42" height="42" viewBox="0 0 42 42" fill="none" xmlns="http://www.w3.org/2000/svg">
<path opacity="0.4" d="M29.324 0H36.3781C39.2995 0 41.6667 2.38719 41.6667 5.33326V12.4469C41.6667 15.393 39.2995 17.7802 36.3781 17.7802H29.324C26.4026 17.7802 24.0354 15.393 24.0354 12.4469V5.33326C24.0354 2.38719 26.4026 0 29.324 0Z" fill="#A8AAAC"/>
<path d="M12.3427 23.8865C15.2641 23.8865 17.6313 26.2737 17.6313 29.2197V36.3334C17.6313 39.2775 15.2641 41.6667 12.3427 41.6667H5.28859C2.3672 41.6667 0 39.2775 0 36.3334V29.2197C0 26.2737 2.3672 23.8865 5.28859 23.8865H12.3427ZM36.3781 23.8865C39.2995 23.8865 41.6667 26.2737 41.6667 29.2197V36.3334C41.6667 39.2775 39.2995 41.6667 36.3781 41.6667H29.324C26.4026 41.6667 24.0354 39.2775 24.0354 36.3334V29.2197C24.0354 26.2737 26.4026 23.8865 29.324 23.8865H36.3781ZM12.3427 0C15.2641 0 17.6313 2.38719 17.6313 5.33326V12.4469C17.6313 15.393 15.2641 17.7802 12.3427 17.7802H5.28859C2.3672 17.7802 0 15.393 0 12.4469V5.33326C0 2.38719 2.3672 0 5.28859 0H12.3427Z" fill="#A8AAAC"/>
</svg>
