<svg width="42" height="40" viewBox="0 0 42 40" fill="none" xmlns="http://www.w3.org/2000/svg">
<path d="M13.0834 0.000322218C14.3959 0.0402382 15.6667 0.269405 16.8979 0.688155H17.0209C17.1042 0.727738 17.1667 0.771488 17.2084 0.811072C17.6688 0.958988 18.1042 1.12565 18.5209 1.35482L19.3125 1.70899C19.625 1.87565 20 2.18607 20.2084 2.31315C20.4167 2.43607 20.6459 2.56315 20.8334 2.7069C23.1479 0.938155 25.9584 -0.0201785 28.8542 0.000322218C30.1688 0.000322218 31.4813 0.186072 32.7292 0.604822C40.4188 3.10482 43.1896 11.5423 40.875 18.9173C39.5625 22.6861 37.4167 26.1257 34.6063 28.9361C30.5834 32.8319 26.1688 36.2902 21.4167 39.2694L20.8959 39.584L20.3542 39.2486C15.5855 36.2902 11.1459 32.8319 7.08545 28.9152C4.29378 26.1048 2.14587 22.6861 0.812534 18.9173C-1.54163 11.5423 1.2292 3.10482 9.00212 0.561072C9.60628 0.352738 10.2292 0.206905 10.8542 0.125655H11.1042C11.6896 0.0402382 12.2709 0.000322218 12.8542 0.000322218H13.0834ZM31.6459 6.58399C30.7917 6.29024 29.8542 6.75065 29.5417 7.62565C29.25 8.50065 29.7084 9.45899 30.5834 9.7694C31.9188 10.2694 32.8125 11.584 32.8125 13.0402V13.1048C32.7729 13.5819 32.9167 14.0423 33.2084 14.3965C33.5 14.7507 33.9375 14.9569 34.3959 15.0007C35.25 14.9777 35.9792 14.2923 36.0417 13.4152V13.1673C36.1042 10.2486 34.3354 7.60482 31.6459 6.58399Z" fill="#A8AAAC"/>
</svg>
