<svg width="48" height="50" viewBox="0 0 48 50" fill="none" xmlns="http://www.w3.org/2000/svg">
<path d="M16.7842 46.9552V39.288C16.7841 37.3452 18.3806 35.7667 20.3582 35.7545H27.6192C29.6056 35.7545 31.2158 37.3365 31.2158 39.288V46.933C31.2158 48.6181 32.5996 49.9876 34.3148 49.9999H39.2686C41.5822 50.0057 43.8032 49.1069 45.4413 47.5017C47.0794 45.8965 48 43.7168 48 41.4437V19.6646C48 17.8284 47.1715 16.0868 45.738 14.9087L28.9086 1.68567C25.9668 -0.627193 21.7652 -0.552479 18.9105 1.86346L2.44298 14.9087C0.94166 16.052 0.0443426 17.7989 0 19.6646V41.4215C0 46.1592 3.90917 49.9999 8.73139 49.9999H13.5721C14.3979 50.0058 15.192 49.6876 15.778 49.116C16.3641 48.5444 16.6937 47.7666 16.6937 46.9552H16.7842Z" fill="#A8AAAC"/>
</svg>
