<svg width="42" height="42" viewBox="0 0 42 42" fill="none" xmlns="http://www.w3.org/2000/svg">
<path d="M14.4918 6.16563C15.5129 5.9745 16.5367 6.48433 16.9822 7.40581C17.0931 7.57303 17.1819 7.75341 17.2463 7.94261C17.5293 12.311 17.8312 16.6054 18.1142 20.8998C18.1078 21.3462 18.1779 21.7905 18.3217 22.214C18.6603 23.0474 19.5028 23.5761 20.4159 23.5282L34.2829 22.6397L34.3773 22.6768L34.6304 22.695C35.1317 22.7591 35.599 22.988 35.9539 23.348C36.3678 23.7681 36.5948 24.3323 36.585 24.9165C36.0382 32.8792 30.2003 39.5323 22.2558 41.2463C14.3112 42.9603 6.16703 39.3238 2.26621 32.3206C1.1192 30.3036 0.39438 28.0821 0.134279 25.7865C0.0333986 25.1063 -0.01077 24.4191 0.00221247 23.7318C0.028505 15.2647 6.05683 7.95639 14.4918 6.16563ZM22.7365 0.00171854C32.2591 0.286781 40.2174 7.19958 41.6598 16.4388C41.669 16.494 41.669 16.5502 41.6598 16.6054L41.6572 16.8662C41.6259 17.211 41.4843 17.5398 41.2492 17.8039C40.9554 18.1339 40.5396 18.3354 40.0939 18.3639L24.0949 19.419L23.8314 19.4242C23.3947 19.4029 22.9759 19.233 22.6497 18.9394C22.2582 18.5871 22.0363 18.0891 22.0385 17.5679L20.9631 1.85274V1.5936C20.9827 1.15162 21.1806 0.735423 21.5133 0.436797C21.846 0.138171 22.2861 -0.0183608 22.7365 0.00171854Z" fill="#A8AAAC"/>
</svg>
