<svg width="32" height="37" viewBox="0 0 32 37" fill="none" xmlns="http://www.w3.org/2000/svg">
<path d="M18.1908 31.6073C19.127 31.6345 20.0461 31.8588 20.8852 32.2651H20.9357C21.6368 32.8272 21.7559 33.8306 21.2052 34.5345C20.2024 35.945 18.5978 36.8343 16.8436 36.9519C15.0413 37.1632 13.2263 36.6728 11.7915 35.587C11.0536 35.0897 10.5741 34.3032 10.478 33.4327C10.478 32.5118 11.3537 32.0842 12.162 31.9033C13.1088 31.7073 14.0739 31.6081 15.0417 31.6073H18.1908ZM16.0689 0C21.8956 0 27.9076 4.14414 28.5307 10.1466C28.6317 11.3799 28.5307 12.6627 28.6317 13.9125C28.9623 15.5242 29.7234 17.022 30.8378 18.254C31.5306 19.2664 31.9319 20.4422 31.9999 21.6581V22.0363C32.0101 23.677 31.4119 25.2659 30.3157 26.5094C28.9264 27.9694 27.0413 28.8869 25.0111 29.0912C19.0128 29.8476 12.9398 29.8476 6.94155 29.0912C4.88743 28.9024 2.97581 27.9836 1.56953 26.5094C0.507722 25.254 -0.0490788 23.6637 0.00339826 22.0363V21.6581C0.0691161 20.4467 0.45808 19.2732 1.13169 18.254C2.25101 17.0208 3.02284 15.5248 3.37143 13.9125C3.47248 12.6627 3.37143 11.3964 3.47248 10.1466C4.1124 4.14414 10.0065 0 15.9005 0H16.0689Z" fill="#A8AAAC"/>
</svg>
