<svg width="39" height="39" viewBox="0 0 39 39" fill="none" xmlns="http://www.w3.org/2000/svg">
<path d="M15.6854 2.26304C17.14 -0.75431 21.4372 -0.754306 22.8917 2.26304L26.6507 10.0604C27.0437 10.8757 27.7016 11.5336 28.5168 11.9266L36.3142 15.6855C39.3316 17.1401 39.3316 21.4373 36.3142 22.8919L28.5168 26.6508C27.7016 27.0438 27.0437 27.7017 26.6507 28.517L22.8917 36.3144C21.4372 39.3317 17.14 39.3317 15.6854 36.3144L11.9265 28.517C11.5335 27.7017 10.8756 27.0438 10.0603 26.6508L2.26291 22.8919C-0.754432 21.4373 -0.754428 17.1401 2.26292 15.6855L10.0603 11.9266C10.8756 11.5336 11.5335 10.8757 11.9265 10.0604L15.6854 2.26304Z" fill="url(#paint0_linear_11_61)"/>
<defs>
<linearGradient id="paint0_linear_11_61" x1="19.2886" y1="-5.2113" x2="19.2886" y2="43.7887" gradientUnits="userSpaceOnUse">
<stop stop-color="#FF6861"/>
<stop offset="1" stop-color="#FF9D57"/>
</linearGradient>
</defs>
</svg>
